 <svg version="1.0" xmlns="http://www.w3.org/2000/svg" width="700.000000pt" height="700.000000pt" viewBox="0 0 700.000000 700.000000" preserveAspectRatio="xMidYMid meet">
<metadata>
Created by potrace 1.12, written by Peter Selinger 2001-2015
</metadata>
<g transform="translate(0.000000,700.000000) scale(0.100000,-0.100000)" fill="#000000" stroke="none">
<path d="M4212 5615 c-69 -19 -97 -39 -117 -81 -25 -53 -17 -77 28 -88 46 -12
476 18 507 34 50 27 7 101 -73 126 -74 23 -277 28 -345 9z"></path>
<path d="M3801 5429 c-80 -16 -132 -49 -193 -125 -41 -51 -81 -86 -138 -123
-104 -66 -131 -109 -146 -238 -6 -47 -4 -54 20 -78 23 -23 32 -26 64 -20 50 9
78 29 110 78 15 23 54 69 87 102 33 33 75 79 94 103 41 52 64 65 163 86 89 20
136 48 160 96 25 48 24 106 -1 120 -23 12 -157 12 -220 -1z"></path>
<path d="M4756 5424 c-9 -9 -16 -32 -16 -56 0 -59 44 -97 144 -126 86 -25 116
-49 116 -90 0 -42 -26 -71 -96 -104 -74 -35 -109 -71 -118 -122 -8 -42 13 -94
45 -114 35 -22 118 -25 192 -8 84 20 136 20 207 1 30 -8 84 -18 119 -21 82 -9
97 -24 106 -105 13 -110 43 -211 72 -241 36 -37 86 -39 109 -3 22 33 31 193
15 253 -14 50 -39 69 -124 91 l-62 16 -17 84 c-21 101 -34 122 -101 165 -62
40 -82 62 -126 136 -18 31 -69 94 -114 141 -65 67 -93 89 -131 102 -66 23
-198 23 -220 1z"></path>
<path d="M3979 4780 c-54 -16 -82 -44 -120 -124 -43 -88 -46 -104 -24 -145 45
-88 343 -109 400 -29 24 35 19 56 -43 167 -73 132 -118 160 -213 131z"></path>
<path d="M3159 4755 c-39 -21 -53 -64 -46 -148 8 -95 32 -174 58 -188 31 -16
67 -3 84 32 35 67 27 278 -12 307 -22 16 -51 15 -84 -3z"></path>
<path d="M4468 4749 c-49 -28 4 -77 69 -64 45 8 51 24 19 52 -29 24 -60 29
-88 12z"></path>
<path d="M4780 4587 c-19 -9 -26 -22 -28 -49 -3 -30 3 -44 33 -76 66 -74 155
-95 195 -48 19 24 17 96 -4 128 -32 49 -139 74 -196 45z"></path>
<path d="M2933 4188 c-32 -35 -40 -57 -57 -147 -9 -46 -21 -90 -27 -97 -6 -7
-39 -22 -73 -34 -78 -26 -103 -51 -118 -122 -18 -84 -5 -117 58 -148 27 -14
81 -51 119 -82 40 -34 82 -60 102 -64 66 -12 139 41 179 132 13 29 29 56 36
61 7 4 71 7 141 5 164 -4 177 2 177 86 -1 98 -48 172 -112 172 -15 0 -69 -21
-120 -48 -80 -41 -96 -53 -113 -88 -33 -67 -42 -74 -101 -74 -88 0 -124 29
-124 100 0 34 26 54 82 64 63 11 81 34 86 108 5 78 -19 172 -48 188 -31 16
-65 12 -87 -12z"></path>
<path d="M5546 3998 c-56 -86 -66 -177 -36 -324 21 -101 22 -125 16 -315 -6
-173 -5 -212 8 -243 17 -41 43 -47 70 -17 27 30 34 107 20 232 -19 170 -17
229 12 348 44 177 22 331 -48 339 -19 2 -31 -4 -42 -20z"></path>
<path d="M4745 3916 c-50 -22 -70 -52 -70 -105 0 -101 50 -126 187 -92 65 16
89 27 111 51 52 57 28 128 -50 149 -52 15 -142 13 -178 -3z"></path>
<path d="M3520 3640 c-12 -7 -16 -44 -21 -182 -9 -247 -26 -313 -93 -352 -86
-51 -122 -112 -151 -256 -26 -129 -31 -135 -128 -164 -159 -48 -171 -50 -278
-37 -116 14 -140 9 -232 -50 -33 -22 -70 -39 -83 -39 -54 0 -112 143 -99 243
16 118 42 175 111 245 86 87 89 98 76 318 -5 99 -13 187 -17 197 -9 21 -53 23
-82 2 -24 -17 -44 -67 -68 -175 -22 -96 -60 -168 -129 -249 -77 -89 -86 -122
-96 -336 -14 -292 -27 -362 -92 -488 -52 -100 -67 -110 -223 -156 -77 -22
-104 -44 -148 -122 -20 -36 -40 -53 -89 -79 -82 -43 -104 -64 -138 -131 -19
-36 -50 -75 -89 -108 -49 -42 -61 -59 -61 -82 0 -38 26 -63 91 -85 64 -22 154
-23 458 -6 321 18 358 29 415 122 42 68 85 90 174 90 79 -1 109 -17 151 -80
43 -65 62 -75 162 -91 96 -15 124 -30 150 -81 27 -53 70 -177 99 -286 29 -107
59 -142 122 -141 23 0 68 4 98 8 90 13 139 -5 218 -81 57 -55 76 -67 120 -77
132 -28 222 0 222 70 0 35 -11 58 -57 118 -37 50 -43 97 -15 130 22 26 126 77
195 95 93 24 159 2 242 -84 68 -71 103 -86 246 -110 270 -44 276 -46 364 -119
27 -23 60 -41 73 -41 49 0 114 105 116 188 1 52 -25 80 -98 106 -25 9 -67 23
-93 33 -53 18 -123 81 -123 109 0 11 18 51 41 89 23 39 54 97 70 131 24 51 37
65 78 87 61 34 79 60 97 150 8 39 20 77 25 83 6 7 29 16 52 19 95 16 137 56
137 132 -1 155 -169 135 -200 -24 -17 -89 -24 -101 -67 -109 -51 -9 -105 -38
-121 -63 -7 -12 -22 -46 -33 -77 -23 -60 -40 -72 -129 -95 -44 -11 -59 -24
-150 -127 -50 -56 -142 -77 -340 -77 -140 1 -148 2 -223 33 -148 61 -217 39
-302 -99 -16 -26 -40 -54 -54 -62 -41 -23 -106 -30 -162 -17 -59 14 -77 36
-137 161 -69 145 -111 170 -283 167 -59 0 -75 4 -148 42 -95 49 -141 97 -194
200 -44 85 -46 108 -12 149 29 34 82 56 175 72 78 13 111 29 142 69 67 89 85
103 164 140 90 41 103 56 134 145 23 67 41 90 90 115 45 23 75 56 89 100 9 29
41 241 41 273 0 5 26 36 59 70 32 34 63 78 69 97 15 52 24 328 12 372 -17 60
-78 95 -120 68z m-1187 -1521 c29 -13 49 -51 40 -76 -12 -34 -56 -73 -83 -73
-60 0 -102 98 -61 139 23 23 66 27 104 10z"></path>
<path d="M5327 2773 c-33 -37 -49 -97 -54 -198 -5 -117 12 -168 58 -173 59 -7
94 85 86 221 -8 131 -48 196 -90 150z"></path>
</g>
</svg>