 <svg version="1.0" xmlns="http://www.w3.org/2000/svg" width="700.000000pt" height="622.000000pt" viewBox="0 0 700.000000 622.000000" preserveAspectRatio="xMidYMid meet">
<metadata>
Created by potrace 1.12, written by Peter Selinger 2001-2015
</metadata>
<g transform="translate(0.000000,622.000000) scale(0.100000,-0.100000)" fill="#000000" stroke="none">
<path d="M4123 4979 c-126 -26 -247 -71 -386 -141 -166 -84 -221 -124 -330
-237 -101 -106 -194 -238 -275 -391 -58 -108 -138 -293 -171 -391 -29 -89 -56
-128 -211 -309 -343 -401 -461 -603 -510 -879 -10 -58 -32 -144 -49 -191 -39
-108 -42 -205 -10 -281 12 -27 20 -51 18 -53 -2 -1 -47 -27 -99 -56 -142 -81
-251 -152 -395 -260 -230 -172 -335 -286 -335 -365 0 -40 32 -90 72 -115 67
-41 160 -36 335 17 66 20 113 27 188 29 117 2 243 33 486 116 l156 54 49 -44
c137 -123 310 -228 472 -286 65 -23 149 -73 139 -82 -2 -2 -41 3 -88 11 -46 8
-91 15 -100 15 -24 0 -47 -22 -54 -52 -5 -21 -1 -33 19 -53 17 -17 21 -27 13
-30 -6 -2 -29 -9 -50 -15 -44 -14 -59 -41 -45 -83 14 -37 41 -42 150 -23 51 9
150 19 219 23 l127 6 95 -46 c56 -28 117 -67 150 -97 59 -54 86 -61 117 -30
35 35 26 72 -30 124 -56 53 -48 57 48 25 72 -24 108 -20 124 16 17 38 2 74
-39 91 -58 25 -182 52 -266 60 l-78 7 53 19 c33 13 110 25 203 33 168 16 308
37 416 65 75 20 109 15 109 -15 0 -15 -14 -20 -93 -30 -28 -4 -57 -15 -68 -26
-38 -38 -15 -103 37 -101 16 1 108 4 204 8 l175 6 91 -46 c56 -28 115 -68 156
-106 76 -69 115 -79 144 -35 24 37 12 66 -61 134 -36 33 -64 61 -61 61 19 0
137 -44 161 -60 38 -25 70 -25 95 0 45 45 17 89 -90 139 -81 38 -148 51 -263
51 -88 0 -89 0 -83 23 3 12 6 36 6 52 0 23 7 35 28 47 51 31 142 131 169 187
18 38 52 80 105 129 164 154 283 319 364 501 40 93 122 341 139 421 4 19 22
60 41 91 97 162 134 287 134 458 0 65 -7 143 -14 176 -14 58 -14 64 13 155 16
52 32 121 35 152 4 31 14 62 22 69 70 58 54 226 -29 325 -22 25 -27 42 -27 83
0 61 -21 117 -73 194 -36 55 -134 138 -176 152 -10 3 -26 26 -36 50 -26 71
-106 185 -181 261 -155 157 -326 239 -612 294 -139 27 -359 27 -489 -1z m257
-134 c0 -30 11 -32 34 -6 28 31 67 34 168 14 89 -17 91 -18 49 -23 -32 -4 -49
-12 -64 -32 -27 -36 -14 -55 20 -28 17 13 41 20 69 20 45 0 53 7 32 28 -18 18
0 15 89 -13 97 -30 214 -97 294 -166 97 -84 201 -246 203 -318 2 -32 7 -37 65
-67 121 -62 215 -186 191 -250 -10 -25 -7 -31 30 -65 44 -40 74 -100 85 -166
6 -39 5 -44 -18 -52 -23 -9 -25 -16 -29 -85 -2 -41 -6 -78 -10 -81 -3 -4 -16
-1 -28 5 -38 20 -45 1 -44 -117 1 -76 8 -130 23 -182 56 -200 29 -386 -85
-569 -35 -55 -55 -105 -84 -210 -110 -390 -190 -533 -436 -772 -221 -215 -414
-323 -709 -400 -114 -30 -349 -64 -343 -50 2 4 17 32 33 63 28 53 29 59 15 83
-39 69 -82 58 -147 -38 -84 -127 -191 -186 -318 -176 -116 10 -197 77 -236
197 -21 67 -56 111 -88 111 -10 0 -28 -11 -41 -25 -19 -20 -24 -36 -22 -70 2
-44 1 -44 -24 -35 -97 37 -273 167 -368 271 -85 94 -206 279 -206 316 0 8 24
10 88 7 317 -19 667 190 897 535 141 212 223 484 196 651 -12 76 -49 158 -87
194 -39 38 -118 73 -180 81 -55 7 -190 -13 -276 -41 -57 -19 -78 -13 -119 31
-18 19 -36 32 -41 29 -15 -10 -8 -51 13 -78 12 -15 20 -29 18 -30 -2 -2 -27
-15 -55 -29 -29 -15 -59 -33 -68 -42 -21 -21 -21 -63 1 -87 23 -26 67 -22 128
11 123 68 320 117 402 102 99 -19 137 -80 135 -216 -1 -79 -28 -224 -45 -242
-15 -15 -51 14 -69 55 -19 42 -22 44 -34 27 -30 -41 1 -125 47 -125 11 0 22
-6 25 -14 6 -16 -52 -136 -66 -136 -13 0 -40 41 -40 62 0 22 -26 24 -34 2 -12
-32 -5 -63 20 -93 l25 -30 -32 -48 c-45 -65 -109 -133 -125 -133 -7 0 -21 11
-32 25 l-20 25 -41 -41 c-22 -23 -41 -43 -41 -45 0 -2 14 -10 30 -19 35 -18
38 -30 9 -46 -18 -9 -26 -6 -53 20 -32 31 -33 31 -69 16 -55 -23 -92 -19 -116
11 -12 15 -21 33 -21 40 0 20 -9 18 -52 -13 -22 -15 -37 -32 -34 -40 7 -17
-27 -36 -41 -22 -16 16 -84 -21 -78 -42 7 -21 -20 -32 -44 -17 -11 7 -35 8
-64 4 -47 -7 -60 -19 -32 -30 25 -9 17 -24 -11 -21 -14 1 -37 14 -52 27 -15
14 -44 35 -65 47 -39 24 -67 65 -67 100 0 32 46 129 102 214 l51 78 12 -28
c21 -50 75 -75 108 -51 17 13 16 15 -19 38 -20 14 -42 39 -49 56 -12 30 -11
34 16 65 52 62 30 129 -43 129 -16 0 -28 3 -28 8 0 27 195 317 209 309 43 -24
88 -37 107 -33 30 8 31 32 2 42 -13 3 -35 15 -51 26 l-27 20 52 61 c29 34 83
97 121 139 l68 77 32 -19 c36 -22 67 -26 67 -8 0 7 -14 26 -31 44 l-31 32 36
53 c19 30 53 104 75 166 40 112 101 244 185 402 49 92 58 104 81 107 13 2 14
0 4 -12 -9 -11 -8 -19 6 -34 16 -18 55 -28 55 -15 0 3 -9 23 -20 45 -11 22
-20 49 -20 61 0 23 57 103 108 152 l29 27 11 -25 c17 -36 42 -33 42 5 0 62 44
114 141 169 47 26 58 29 63 16 9 -24 22 -18 44 19 15 26 37 40 98 66 44 18
106 41 140 50 l61 18 9 -25 9 -25 30 26 c34 29 85 43 163 45 49 1 52 0 52 -24z
m-1411 -2603 c32 -19 32 -21 13 -31 -29 -15 -27 -16 -77 30 -36 34 -43 45 -34
56 10 12 16 10 38 -11 14 -13 41 -33 60 -44z m-605 -73 c-3 -5 -10 -7 -15 -3
-5 3 -7 10 -4 15 4 5 1 9 -4 9 -6 0 -11 5 -11 12 0 6 8 3 20 -7 11 -10 17 -22
14 -26z m435 7 c29 -30 30 -34 14 -40 -13 -5 -26 1 -45 24 -52 57 -23 72 31
16z m-141 -54 c3 -9 -2 -13 -14 -10 -9 1 -19 9 -22 16 -3 9 2 13 14 10 9 -1
19 -9 22 -16z m-306 -219 c25 -54 69 -133 97 -176 45 -69 49 -78 29 -72 -24 7
-91 71 -100 96 -4 11 -8 11 -18 2 -21 -19 -3 -78 31 -107 17 -14 35 -26 40
-26 6 0 7 -4 4 -10 -16 -26 -105 7 -126 46 -9 19 -10 30 -1 49 7 14 12 28 12
30 0 3 -24 5 -52 5 -127 1 -214 96 -149 162 22 23 152 97 171 97 9 1 33 -36
62 -96z m-324 -94 c-23 -15 -33 9 -12 32 l19 21 3 -22 c2 -13 -2 -26 -10 -31z
m-134 -76 c-13 -10 -20 -10 -23 -2 -4 14 19 30 33 22 5 -3 1 -12 -10 -20z
m217 -19 c18 -30 19 -38 8 -45 -8 -5 -18 -7 -23 -6 -19 6 -49 56 -43 71 10 26
34 18 58 -20z m-140 -80 c18 -30 19 -38 8 -45 -21 -13 -26 -11 -48 17 -24 30
-27 50 -8 57 22 9 25 7 48 -29z m278 -86 c-29 -11 -39 -2 -39 34 l0 32 30 -29
c30 -29 30 -30 9 -37z m-411 17 c19 -31 20 -36 7 -41 -17 -7 -65 31 -65 52 0
11 13 21 30 23 3 0 15 -15 28 -34z m300 -47 c-21 -13 -36 -9 -43 12 -11 34 5
44 31 19 18 -17 21 -25 12 -31z m-440 -8 c27 -37 27 -40 0 -40 -25 1 -63 44
-53 60 11 18 31 11 53 -20z m307 -10 c3 -5 -3 -10 -15 -10 -12 0 -18 5 -15 10
3 6 10 10 15 10 5 0 12 -4 15 -10z m-435 -45 c7 -9 10 -18 7 -21 -9 -9 -48 16
-42 27 9 13 21 11 35 -6z"></path>
<path d="M4790 4745 c-9 -11 -10 -19 -3 -26 8 -8 13 -7 17 0 4 6 18 11 32 11
30 0 31 16 2 24 -32 8 -34 8 -48 -9z"></path>
<path d="M3965 4743 c-34 -8 -65 -44 -65 -75 0 -34 4 -35 42 -3 16 14 47 28
69 31 22 4 42 10 44 14 12 19 -52 43 -90 33z"></path>
<path d="M4163 4730 c-30 -18 -53 -63 -40 -77 4 -3 22 8 42 26 27 24 45 31 75
31 43 0 52 13 21 30 -30 15 -62 12 -98 -10z"></path>
<path d="M4360 4690 c-20 -20 -28 -60 -12 -60 5 0 17 9 27 20 10 11 33 22 51
26 36 7 44 18 18 28 -30 12 -64 6 -84 -14z"></path>
<path d="M4945 4647 c-13 -10 -15 -16 -6 -21 6 -4 18 -2 26 4 9 7 28 10 45 6
31 -6 42 7 14 18 -26 10 -59 7 -79 -7z"></path>
<path d="M4610 4635 c-17 -21 -7 -29 20 -15 11 6 32 10 45 8 13 -2 25 2 27 7
5 18 -77 18 -92 0z"></path>
<path d="M3699 4617 c-34 -26 -51 -88 -28 -102 6 -4 26 11 45 34 20 23 42 41
49 41 20 0 30 21 14 31 -20 12 -61 10 -80 -4z"></path>
<path d="M4121 4576 c-14 -15 -21 -31 -17 -41 5 -15 9 -14 32 4 15 12 38 21
51 21 37 0 26 34 -12 38 -22 2 -37 -4 -54 -22z"></path>
<path d="M3889 4551 c-27 -28 -37 -60 -23 -74 4 -3 21 10 39 29 21 21 42 34
58 34 33 0 43 16 18 29 -33 18 -61 12 -92 -18z"></path>
<path d="M4341 4546 c-12 -13 -18 -27 -13 -30 5 -3 17 3 27 14 10 11 29 20 42
20 12 0 23 5 23 10 0 20 -57 10 -79 -14z"></path>
<path d="M4965 4535 c-49 -25 -80 -80 -80 -142 l0 -53 -39 0 c-64 0 -116 -21
-170 -71 l-51 -46 -101 -5 c-89 -4 -108 -9 -150 -33 -58 -34 -111 -90 -123
-130 -5 -16 -12 -58 -16 -92 -6 -62 -6 -62 22 -68 161 -35 300 -153 295 -252
-1 -36 3 -45 29 -63 37 -27 75 -100 84 -163 7 -44 6 -47 -18 -56 -24 -9 -26
-15 -29 -83 -3 -68 -5 -73 -24 -70 -27 4 -40 -13 -56 -71 -9 -36 -9 -50 0 -59
9 -9 17 -7 34 8 13 11 36 26 51 32 31 13 66 79 67 125 0 15 8 35 19 46 10 10
20 24 23 31 2 8 15 5 42 -10 81 -49 190 -23 253 59 96 125 109 410 27 600 -24
54 -25 61 -11 87 25 50 29 88 13 135 -20 56 -20 59 2 59 35 0 83 40 104 86 56
129 -73 260 -197 199z m-55 -290 c94 -48 93 -167 -1 -190 -19 -5 -45 2 -85 20
-104 47 -181 31 -231 -48 -62 -99 -76 -116 -102 -127 -24 -10 -37 -7 -97 22
-62 30 -69 37 -72 65 -3 26 5 41 38 76 52 57 73 65 191 70 107 5 146 20 187
76 34 47 117 64 172 36z m-110 -250 c33 -14 71 -25 84 -25 89 0 129 -368 54
-501 -26 -46 -58 -62 -95 -48 -49 18 -132 88 -152 127 -10 20 -31 48 -45 61
-19 18 -26 35 -26 60 0 37 -25 87 -63 129 l-21 22 41 43 c22 23 50 60 63 82
50 86 64 90 160 50z"></path>
<path d="M4070 4473 c-26 -10 -50 -36 -50 -55 0 -25 12 -23 40 7 13 14 32 25
42 25 22 0 24 16 2 24 -9 3 -16 6 -17 5 -1 0 -9 -3 -17 -6z"></path>
<path d="M3696 4419 c-27 -32 -34 -76 -15 -110 15 -28 29 -14 29 29 0 20 9 52
20 70 24 39 24 42 6 42 -8 0 -26 -14 -40 -31z"></path>
<path d="M3570 4430 c0 -5 5 -10 10 -10 6 0 10 5 10 10 0 6 -4 10 -10 10 -5 0
-10 -4 -10 -10z"></path>
<path d="M3538 4393 c-45 -52 -46 -103 -2 -143 27 -26 26 -28 29 55 1 33 4 69
6 79 5 25 -14 31 -33 9z"></path>
<path d="M3830 4270 c0 -5 5 -10 10 -10 6 0 10 5 10 10 0 6 -4 10 -10 10 -5 0
-10 -4 -10 -10z"></path>
<path d="M3885 4227 c-115 -65 -111 -239 8 -296 56 -27 103 -27 158 2 153 81
93 317 -81 317 -28 0 -60 -9 -85 -23z"></path>
<path d="M3710 4143 c-57 -9 -130 -34 -130 -44 0 -6 6 -9 13 -7 6 2 49 12 95
23 45 10 82 22 82 27 0 8 -16 9 -60 1z"></path>
<path d="M3480 4130 c0 -5 5 -10 10 -10 6 0 10 5 10 10 0 6 -4 10 -10 10 -5 0
-10 -4 -10 -10z"></path>
<path d="M3260 4105 c-10 -12 -10 -18 0 -30 20 -24 43 -19 35 8 -11 33 -20 40
-35 22z"></path>
<path d="M3408 4093 c-8 -10 -18 -26 -21 -35 -3 -10 -28 -33 -56 -53 -27 -19
-52 -42 -55 -51 -10 -26 -7 -73 6 -93 10 -16 7 -24 -15 -51 -53 -62 -46 -123
17 -154 28 -13 36 -22 31 -35 -4 -9 -9 -34 -12 -57 -4 -33 -1 -46 20 -70 24
-27 31 -29 111 -33 93 -3 122 13 37 21 -68 7 -101 30 -101 71 0 34 33 97 50
97 5 0 10 5 10 10 0 6 -15 10 -34 10 -25 0 -40 7 -54 25 -25 31 -32 31 -33 3
-1 -20 -2 -19 -9 5 -5 16 -13 34 -19 41 -10 12 -4 31 30 84 11 18 11 26 1 42
-6 11 -12 33 -12 50 0 25 9 36 50 66 28 20 50 42 50 49 0 7 12 27 26 44 18 22
21 31 11 31 -7 0 -21 -8 -29 -17z m-41 -459 c-9 -9 -28 6 -21 18 4 6 10 6 17
-1 6 -6 8 -13 4 -17z"></path>
<path d="M3316 3771 c-4 -7 -5 -15 -2 -18 9 -9 19 4 14 18 -4 11 -6 11 -12 0z"></path>
<path d="M3099 3743 c-6 -15 -8 -42 -4 -60 10 -53 90 -105 111 -72 4 7 -7 22
-24 35 -18 14 -33 38 -37 57 -15 76 -28 87 -46 40z"></path>
<path d="M3350 3191 c-17 -33 -11 -61 19 -92 31 -31 71 -38 90 -16 8 11 3 19
-26 38 -24 16 -40 35 -45 57 -10 36 -23 41 -38 13z"></path>
<path d="M2960 3135 c-18 -22 -5 -86 21 -107 22 -18 55 -23 83 -12 25 10 19
24 -15 36 -22 8 -36 22 -50 54 -21 49 -22 50 -39 29z"></path>
<path d="M3170 3122 c0 -13 35 -42 50 -42 9 0 5 9 -10 25 -24 25 -40 32 -40
17z"></path>
<path d="M3110 3091 c0 -12 59 -71 71 -71 17 0 9 15 -13 25 -13 6 -27 20 -33
33 -10 22 -25 30 -25 13z"></path>
<path d="M2615 3050 c3 -5 13 -10 21 -10 8 0 12 5 9 10 -3 6 -13 10 -21 10 -8
0 -12 -4 -9 -10z"></path>
<path d="M2620 2990 c0 -5 5 -10 10 -10 6 0 10 5 10 10 0 6 -4 10 -10 10 -5 0
-10 -4 -10 -10z"></path>
<path d="M2840 2959 c0 -20 21 -45 45 -53 17 -6 17 -4 -5 21 -14 15 -28 32
-32 38 -5 5 -8 2 -8 -6z"></path>
<path d="M2606 2914 c-18 -48 12 -108 61 -117 59 -11 70 17 20 48 -19 12 -36
33 -42 53 -10 34 -29 42 -39 16z"></path>
<path d="M2780 2921 c0 -6 5 -13 10 -16 6 -3 10 1 10 9 0 9 -4 16 -10 16 -5 0
-10 -4 -10 -9z"></path>
<path d="M3170 2890 c0 -15 46 -60 61 -60 6 0 -2 15 -18 34 -29 36 -43 44 -43
26z"></path>
<path d="M2800 2886 c0 -2 8 -10 18 -17 15 -13 16 -12 3 4 -13 16 -21 21 -21
13z"></path>
<path d="M3110 2880 c0 -5 5 -10 10 -10 6 0 10 5 10 10 0 6 -4 10 -10 10 -5 0
-10 -4 -10 -10z"></path>
<path d="M3130 2820 c0 -5 10 -15 23 -21 22 -12 22 -12 3 10 -21 23 -26 26
-26 11z"></path>
<path d="M3010 2741 c-36 -68 32 -143 104 -115 24 9 19 20 -15 35 -22 9 -38
26 -51 56 -10 24 -21 43 -23 43 -2 0 -9 -9 -15 -19z"></path>
<path d="M2820 2673 c0 -22 12 -44 31 -54 11 -5 19 -6 19 -2 -1 13 -50 69 -50
56z"></path>
<path d="M2760 2631 c0 -6 5 -13 10 -16 6 -3 10 1 10 9 0 9 -4 16 -10 16 -5 0
-10 -4 -10 -9z"></path>
<path d="M2799 2577 c25 -28 41 -35 41 -17 0 6 -5 10 -12 10 -6 0 -21 8 -32
17 -15 13 -14 10 3 -10z"></path>
<path d="M2632 2528 c-6 -6 -12 -27 -12 -45 0 -47 39 -85 82 -81 42 4 45 19 8
40 -18 10 -38 34 -48 58 -14 33 -20 38 -30 28z"></path>
<path d="M2977 2513 c-4 -3 -7 -21 -7 -39 0 -36 29 -64 67 -64 31 0 39 19 14
36 -12 9 -28 28 -36 45 -15 29 -26 35 -38 22z"></path>
<path d="M2417 2484 c-4 -4 -7 -24 -7 -44 0 -48 33 -80 83 -80 46 0 47 12 2
38 -22 14 -37 32 -43 53 -8 33 -22 46 -35 33z"></path>
<path d="M3200 2470 c0 -5 5 -10 10 -10 6 0 10 5 10 10 0 6 -4 10 -10 10 -5 0
-10 -4 -10 -10z"></path>
<path d="M2192 1928 c-7 -7 -12 -26 -12 -44 0 -43 42 -84 86 -84 43 0 43 18 2
45 -17 11 -36 34 -42 52 -14 40 -20 45 -34 31z"></path>
<path d="M5540 4531 c0 -10 110 -95 115 -89 3 2 -18 21 -45 41 -28 21 -50 42
-50 47 0 6 -4 10 -10 10 -5 0 -10 -4 -10 -9z"></path>
<path d="M5766 4307 c3 -10 9 -15 12 -12 3 3 0 11 -7 18 -10 9 -11 8 -5 -6z"></path>
<path d="M5840 4140 c0 -5 5 -10 10 -10 6 0 10 5 10 10 0 6 -4 10 -10 10 -5 0
-10 -4 -10 -10z"></path>
<path d="M5850 4100 c0 -5 5 -10 10 -10 6 0 10 5 10 10 0 6 -4 10 -10 10 -5 0
-10 -4 -10 -10z"></path>
<path d="M5860 4046 c0 -13 7 -29 15 -36 20 -17 62 -108 70 -154 4 -20 12 -36
17 -36 21 0 -13 93 -67 190 -8 14 -15 33 -15 43 0 9 -4 17 -10 17 -5 0 -10
-11 -10 -24z"></path>
<path d="M5960 3743 c0 -65 -21 -146 -48 -183 -10 -14 -31 -78 -47 -143 -26
-111 -27 -123 -17 -195 35 -224 -13 -475 -124 -658 -20 -32 -50 -104 -66 -159
-83 -286 -167 -483 -269 -631 -58 -83 -252 -300 -292 -327 -14 -9 -29 -27 -33
-39 -4 -13 -18 -40 -30 -60 -13 -21 -24 -39 -24 -41 0 -2 19 -10 43 -17 73
-21 157 -69 203 -115 24 -25 44 -38 44 -31 0 24 -96 104 -169 140 -39 20 -71
39 -71 41 0 31 50 98 147 199 142 147 233 273 307 421 54 109 123 297 166 451
12 43 41 113 63 154 56 101 84 175 113 300 26 117 32 276 13 384 -9 55 -7 72
19 176 17 63 42 144 57 180 31 71 48 210 26 210 -7 0 -11 -21 -11 -57z"></path>
<path d="M2050 2600 c0 -5 5 -10 10 -10 6 0 10 5 10 10 0 6 -4 10 -10 10 -5 0
-10 -4 -10 -10z"></path>
<path d="M1945 2174 l-40 -36 43 22 c23 12 42 28 42 36 0 18 1 19 -45 -22z"></path>
<path d="M2505 1314 c-56 -21 -246 -78 -330 -99 -38 -9 -119 -21 -180 -25 -69
-5 -153 -19 -226 -38 -158 -42 -218 -47 -302 -28 -80 19 -80 19 -72 7 3 -6 39
-17 81 -26 86 -20 164 -12 334 30 52 13 136 26 185 29 103 5 253 39 438 97
l128 40 67 -49 c37 -27 95 -68 130 -91 34 -23 62 -48 62 -56 0 -8 -10 -31 -22
-52 -19 -31 -23 -53 -23 -115 0 -42 5 -82 10 -87 7 -7 10 16 10 72 0 76 3 86
33 133 17 28 32 56 32 61 0 6 -33 32 -74 57 -41 26 -107 71 -146 101 -38 30
-76 55 -83 54 -6 0 -30 -7 -52 -15z"></path>
<path d="M1290 1200 c0 -5 5 -10 11 -10 5 0 7 5 4 10 -3 6 -8 10 -11 10 -2 0
-4 -4 -4 -10z"></path>
<path d="M1334 1161 c3 -5 15 -11 26 -14 17 -4 19 -3 9 9 -12 15 -44 20 -35 5z"></path>
<path d="M5289 886 c-8 -16 -40 -47 -71 -69 -32 -21 -58 -44 -58 -49 0 -22
-52 -79 -91 -98 -53 -28 -117 -35 -177 -21 -38 10 -66 27 -125 79 -41 37 -99
80 -129 95 -50 25 -61 27 -183 27 -72 0 -148 -5 -170 -10 -29 -6 -58 -5 -98 4
l-57 13 -24 -42 c-14 -23 -41 -53 -61 -66 -19 -13 -47 -43 -60 -66 -57 -96
-155 -144 -252 -123 -59 14 -73 22 -134 75 -27 25 -78 59 -112 76 -62 32 -63
32 -177 26 -63 -3 -153 -13 -200 -22 -94 -18 -148 -14 -203 15 -41 22 -51 25
-42 10 9 -14 84 -47 125 -55 19 -3 78 1 130 9 52 9 142 16 200 17 95 2 110 0
160 -24 30 -14 79 -47 109 -72 66 -56 72 -60 142 -75 47 -11 64 -10 113 4 60
18 55 13 226 192 l75 78 135 5 c244 9 306 5 362 -26 27 -15 79 -53 116 -85
102 -91 209 -111 310 -59 37 19 112 94 112 112 0 4 20 22 44 39 49 36 89 85
83 103 -2 6 -10 -1 -18 -17z"></path>
<path d="M2820 791 c0 -5 5 -13 10 -16 6 -3 10 -2 10 4 0 5 -4 13 -10 16 -5 3
-10 2 -10 -4z"></path>
</g>
</svg>